<svg width="512" height="512" viewBox="0 0 512 512" fill="none" xmlns="http://www.w3.org/2000/svg">
<path d="M392 488H120C117.878 488 115.843 487.157 114.343 485.657C112.843 484.157 112 482.122 112 480V256C112 253.878 112.843 251.843 114.343 250.343C115.843 248.843 117.878 248 120 248H392C394.122 248 396.157 248.843 397.657 250.343C399.157 251.843 400 253.878 400 256V480C400 482.122 399.157 484.157 397.657 485.657C396.157 487.157 394.122 488 392 488ZM128 472H384V264H128V472Z" fill="#FAE7EA"/>
<path d="M328 264H184C181.878 264 179.843 263.157 178.343 261.657C176.843 260.157 176 258.122 176 256V208C176 205.878 176.843 203.843 178.343 202.343C179.843 200.843 181.878 200 184 200H328C330.122 200 332.157 200.843 333.657 202.343C335.157 203.843 336 205.878 336 208V256C336 258.122 335.157 260.157 333.657 261.657C332.157 263.157 330.122 264 328 264ZM192 248H320V216H192V248Z" fill="#FAE7EA"/>
<path d="M304 216H208C205.878 216 203.843 215.157 202.343 213.657C200.843 212.157 200 210.122 200 208V160C200 157.878 200.843 155.843 202.343 154.343C203.843 152.843 205.878 152 208 152H304C306.122 152 308.157 152.843 309.657 154.343C311.157 155.843 312 157.878 312 160V208C312 210.122 311.157 212.157 309.657 213.657C308.157 215.157 306.122 216 304 216ZM216 200H296V168H216V200Z" fill="#FAE7EA"/>
<path d="M288 168H224C221.878 168 219.843 167.157 218.343 165.657C216.843 164.157 216 162.122 216 160V124.96L204.4 119.12C203.081 118.455 201.971 117.438 201.195 116.182C200.418 114.925 200.004 113.478 200 112V64.0002C200.004 62.6365 200.357 61.2965 201.025 60.1074C201.692 58.9183 202.653 57.9197 203.815 57.2063C204.977 56.4929 206.303 56.0885 207.665 56.0314C209.028 55.9743 210.382 56.2665 211.6 56.8802L291.6 96.8802C292.919 97.545 294.029 98.5621 294.805 99.8189C295.582 101.076 295.996 102.523 296 104V160C296 162.122 295.157 164.157 293.657 165.657C292.157 167.157 290.122 168 288 168ZM232 152H280V108.96L216 76.9602V107.04L227.6 112.88C228.919 113.545 230.029 114.562 230.805 115.819C231.582 117.076 231.996 118.523 232 120V152Z" fill="#FAE7EA"/>
<path d="M368 264H144C141.878 264 139.843 263.157 138.343 261.657C136.843 260.157 136 258.122 136 256V32C136 29.8783 136.843 27.8434 138.343 26.3431C139.843 24.8429 141.878 24 144 24H368C370.122 24 372.157 24.8429 373.657 26.3431C375.157 27.8434 376 29.8783 376 32V256C376 258.122 375.157 260.157 373.657 261.657C372.157 263.157 370.122 264 368 264ZM152 248H360V40H152V248Z" fill="#FAE7EA"/>
</svg>
