<svg width="512" height="512" viewBox="0 0 512 512" fill="none" xmlns="http://www.w3.org/2000/svg">
<g clip-path="url(#clip0_739_145)">
<path fill-rule="evenodd" clip-rule="evenodd" d="M351 512H161C157 512 154 509 154 505V324C154 320 157 317 161 317H351C355 317 358 320 358 324V505C358 509 355 512 351 512ZM168 498H344V331H168V498Z" fill="#FAE7EA"/>
<path fill-rule="evenodd" clip-rule="evenodd" d="M319 331H194C183 331 174 322 174 311V300C174 289 183 280 194 280H319C330 280 339 289 339 300V311C339 322 330 331 319 331ZM194 294C190 294 188 297 188 300V311C188 314 190 317 194 317H319C323 317 325 314 325 311V300C325 297 323 294 319 294H194Z" fill="#FAE7EA"/>
<path fill-rule="evenodd" clip-rule="evenodd" d="M319 294H194C190 294 187 291 187 287V177C187 173 190 170 194 170H319C323 170 327 173 327 177V287C326 291 323 294 319 294ZM201 280H312V184H201V280Z" fill="#FAE7EA"/>
<path fill-rule="evenodd" clip-rule="evenodd" d="M306 184H206C204 184 202 183 201 182C199 180 199 179 199 177L200 88C200 84 203 81 207 81C211 81 214 84 214 88L213 170H300V26C300 22 303 19 307 19C310 19 314 22 314 26V177C313 181 310 184 306 184Z" fill="#FAE7EA"/>
<path fill-rule="evenodd" clip-rule="evenodd" d="M300 461H213C209 461 206 458 206 454V375C206 371 209 368 213 368H300C303 368 307 371 307 375V454C306 458 303 461 300 461ZM220 447H292V382H220V447Z" fill="#FAE7EA"/>
<path fill-rule="evenodd" clip-rule="evenodd" d="M225 114C217 114 210 112 206 107C190 91.9999 201 58.9999 230 29.9999C259 1.99987 292 -8.00013 306 6.99987C322 21.9999 311 54.9999 282 83.9999C270 96.9999 255 106 241 111C235 113 230 114 225 114ZM239 39.9999C216 62.9999 208 88.9999 216 96.9999C224 105 250 96.9999 273 73.9999C296 50.9999 304 24.9999 297 16.9999C289 8.99987 264 16.9999 239 39.9999Z" fill="#FAE7EA"/>
</g>
<defs>
<clipPath id="clip0_739_145">
<rect width="512" height="512" fill="white"/>
</clipPath>
</defs>
</svg>
