<svg width="512" height="512" viewBox="0 0 512 512" fill="none" xmlns="http://www.w3.org/2000/svg">
<path fill-rule="evenodd" clip-rule="evenodd" d="M389 512H291C287 512 284 509 283 505L274 228C274 226 275 224 276 223C278 222 280 221 281 221H398C399 221 401 222 402 223C404 224 404 226 404 228L395 505C395 509 392 512 389 512ZM297 498H382L390 235H289L297 498Z" fill="#FAE7EA"/>
<path fill-rule="evenodd" clip-rule="evenodd" d="M339 167C325 167 312 155 312 140V27C312 12 325 0 339 0C355 0 367 12 367 27V140C367 155 355 167 339 167ZM339 14C332 14 326 20 326 27V140C326 147 332 153 339 153C347 153 353 147 353 140V27C353 20 347 14 339 14Z" fill="#FAE7EA"/>
<path fill-rule="evenodd" clip-rule="evenodd" d="M376 49H360C357 49 353 46 353 42C353 38 357 35 360 35H376C380 35 384 38 384 42C384 46 380 49 376 49ZM319 49H303C299 49 295 46 295 42C295 38 299 35 303 35H319C323 35 327 38 327 42C327 46 323 49 319 49Z" fill="#FAE7EA"/>
<path fill-rule="evenodd" clip-rule="evenodd" d="M376 77H360C357 77 353 74 353 70C353 66 357 63 360 63H376C380 63 384 66 384 70C384 74 380 77 376 77ZM319 77H303C299 77 295 74 295 70C295 66 299 63 303 63H319C323 63 327 66 327 70C327 74 323 77 319 77Z" fill="#FAE7EA"/>
<path fill-rule="evenodd" clip-rule="evenodd" d="M376 104H360C357 104 353 101 353 97C353 93 357 90 360 90H376C380 90 384 93 384 97C384 101 380 104 376 104ZM319 104H303C299 104 295 101 295 97C295 93 299 90 303 90H319C323 90 327 93 327 97C327 101 323 104 319 104Z" fill="#FAE7EA"/>
<path fill-rule="evenodd" clip-rule="evenodd" d="M376 132H360C357 132 353 129 353 125C353 121 357 118 360 118H376C380 118 384 121 384 125C384 129 380 132 376 132ZM319 132H303C299 132 295 129 295 125C295 121 299 118 303 118H319C323 118 327 121 327 125C327 129 323 132 319 132Z" fill="#FAE7EA"/>
<path fill-rule="evenodd" clip-rule="evenodd" d="M339 209C336 209 332 206 332 202V160C332 156 336 153 339 153C343 153 346 156 346 160V202C346 206 343 209 339 209Z" fill="#FAE7EA"/>
<path fill-rule="evenodd" clip-rule="evenodd" d="M231 512H115C111 512 108 509 108 505V228C108 224 111 221 115 221H231C234 221 238 224 238 228V505C238 509 234 512 231 512ZM122 498H224V235H122V498Z" fill="#FAE7EA"/>
<path fill-rule="evenodd" clip-rule="evenodd" d="M223 235H122C118 235 114 232 114 228L115 202C115 198 118 195 122 195H223C227 195 230 198 230 202V228C230 232 227 235 223 235ZM129 221H216V209H129V221Z" fill="#FAE7EA"/>
<path fill-rule="evenodd" clip-rule="evenodd" d="M220 209H126C122 209 119 206 119 202V176C119 172 122 169 126 169H220C224 169 227 172 227 176V202C227 206 224 209 220 209ZM133 195H213V183H133V195Z" fill="#FAE7EA"/>
<path fill-rule="evenodd" clip-rule="evenodd" d="M211 183H134C130 183 126 180 126 176V148C126 144 130 141 134 141H211C215 141 218 144 218 148V176C218 180 215 183 211 183ZM141 169H204V155H141V169Z" fill="#FAE7EA"/>
<path fill-rule="evenodd" clip-rule="evenodd" d="M380 235H300C297 235 295 234 294 232C293 231 292 229 293 227L299 201C299 197 302 195 305 195H374C378 195 381 197 381 200L387 226C388 229 387 231 386 232C385 234 383 235 380 235ZM308 221H372L369 209H311L308 221Z" fill="#FAE7EA"/>
</svg>
