<svg width="512" height="512" viewBox="0 0 512 512" fill="none" xmlns="http://www.w3.org/2000/svg">
<path d="M464 488H48C41.6348 488 35.5303 485.471 31.0294 480.971C26.5286 476.47 24 470.365 24 464V272C24 265.635 26.5286 259.53 31.0294 255.029C35.5303 250.529 41.6348 248 48 248H464C470.365 248 476.47 250.529 480.971 255.029C485.471 259.53 488 265.635 488 272V464C488 470.365 485.471 476.47 480.971 480.971C476.47 485.471 470.365 488 464 488ZM48 264C45.8783 264 43.8434 264.843 42.3431 266.343C40.8429 267.843 40 269.878 40 272V464C40 466.122 40.8429 468.157 42.3431 469.657C43.8434 471.157 45.8783 472 48 472H464C466.122 472 468.157 471.157 469.657 469.657C471.157 468.157 472 466.122 472 464V272C472 269.878 471.157 267.843 469.657 266.343C468.157 264.843 466.122 264 464 264H48Z" fill="#FAE7EA"/>
<path d="M256 168H64C53.3913 168 43.2172 163.786 35.7157 156.284C28.2143 148.783 24 138.609 24 128C24 117.391 28.2143 107.217 35.7157 99.7157C43.2172 92.2143 53.3913 88 64 88H256C258.122 88 260.157 88.8429 261.657 90.3431C263.157 91.8434 264 93.8783 264 96V160C264 162.122 263.157 164.157 261.657 165.657C260.157 167.157 258.122 168 256 168ZM64 104C57.6348 104 51.5303 106.529 47.0294 111.029C42.5286 115.53 40 121.635 40 128C40 134.365 42.5286 140.47 47.0294 144.971C51.5303 149.471 57.6348 152 64 152H248V104H64Z" fill="#FAE7EA"/>
<path d="M416 216C415.231 216.113 414.449 216.113 413.68 216L253.68 168C251.979 167.487 250.498 166.422 249.47 164.973C248.441 163.525 247.924 161.775 248 160V96.0002C247.924 94.2254 248.441 92.4758 249.47 91.0273C250.498 89.5788 251.979 88.5138 253.68 88.0002L413.68 40.0002C415.215 39.5449 416.852 39.5607 418.378 40.0456C419.904 40.5305 421.249 41.4622 422.24 42.7202C441.691 66.7794 452.302 96.7819 452.302 127.72C452.302 158.659 441.691 188.661 422.24 212.72C421.519 213.707 420.582 214.516 419.501 215.085C418.419 215.653 417.222 215.966 416 216ZM264 154.08L413.04 198.72C428.127 178.228 436.266 153.448 436.266 128C436.266 102.553 428.127 77.7725 413.04 57.2802L264 101.92V154.08Z" fill="#FAE7EA"/>
<path d="M256 360C248.089 360 240.355 357.654 233.777 353.259C227.199 348.864 222.072 342.616 219.045 335.307C216.017 327.998 215.225 319.956 216.769 312.196C218.312 304.437 222.122 297.31 227.716 291.716C233.31 286.122 240.437 282.312 248.196 280.769C255.956 279.225 263.998 280.017 271.307 283.045C278.616 286.072 284.864 291.199 289.259 297.777C293.654 304.355 296 312.089 296 320C296 330.609 291.786 340.783 284.284 348.284C276.783 355.786 266.609 360 256 360ZM256 296C251.253 296 246.613 297.408 242.666 300.045C238.72 302.682 235.643 306.43 233.827 310.816C232.01 315.201 231.535 320.027 232.461 324.682C233.387 329.338 235.673 333.614 239.029 336.971C242.386 340.327 246.662 342.613 251.318 343.539C255.973 344.465 260.799 343.99 265.184 342.173C269.57 340.357 273.318 337.28 275.955 333.334C278.592 329.387 280 324.747 280 320C280 313.635 277.471 307.53 272.971 303.029C268.47 298.529 262.365 296 256 296Z" fill="#FAE7EA"/>
<path d="M256 456C248.089 456 240.355 453.654 233.777 449.259C227.199 444.864 222.072 438.616 219.045 431.307C216.017 423.998 215.225 415.956 216.769 408.196C218.312 400.437 222.122 393.31 227.716 387.716C233.31 382.122 240.437 378.312 248.196 376.769C255.956 375.225 263.998 376.017 271.307 379.045C278.616 382.072 284.864 387.199 289.259 393.777C293.654 400.355 296 408.089 296 416C296 426.609 291.786 436.783 284.284 444.284C276.783 451.786 266.609 456 256 456ZM256 392C251.253 392 246.613 393.408 242.666 396.045C238.72 398.682 235.643 402.43 233.827 406.816C232.01 411.201 231.535 416.027 232.461 420.682C233.387 425.338 235.673 429.614 239.029 432.971C242.386 436.327 246.662 438.613 251.318 439.539C255.973 440.465 260.799 439.99 265.184 438.173C269.57 436.357 273.318 433.28 275.955 429.334C278.592 425.387 280 420.747 280 416C280 409.635 277.471 403.53 272.971 399.029C268.47 394.529 262.365 392 256 392Z" fill="#FAE7EA"/>
<path d="M400 360C392.089 360 384.355 357.654 377.777 353.259C371.199 348.864 366.072 342.616 363.045 335.307C360.017 327.998 359.225 319.956 360.769 312.196C362.312 304.437 366.122 297.31 371.716 291.716C377.31 286.122 384.437 282.312 392.196 280.769C399.956 279.225 407.998 280.017 415.307 283.045C422.616 286.072 428.864 291.199 433.259 297.777C437.654 304.355 440 312.089 440 320C440 330.609 435.786 340.783 428.284 348.284C420.783 355.786 410.609 360 400 360ZM400 296C395.253 296 390.613 297.408 386.666 300.045C382.72 302.682 379.643 306.43 377.827 310.816C376.01 315.201 375.535 320.027 376.461 324.682C377.387 329.338 379.673 333.614 383.029 336.971C386.386 340.327 390.662 342.613 395.318 343.539C399.973 344.465 404.799 343.99 409.184 342.173C413.57 340.357 417.318 337.28 419.955 333.334C422.592 329.387 424 324.747 424 320C424 313.635 421.471 307.53 416.971 303.029C412.47 298.529 406.365 296 400 296Z" fill="#FAE7EA"/>
<path d="M400 456C392.089 456 384.355 453.654 377.777 449.259C371.199 444.864 366.072 438.616 363.045 431.307C360.017 423.998 359.225 415.956 360.769 408.196C362.312 400.437 366.122 393.31 371.716 387.716C377.31 382.122 384.437 378.312 392.196 376.769C399.956 375.225 407.998 376.017 415.307 379.045C422.616 382.072 428.864 387.199 433.259 393.777C437.654 400.355 440 408.089 440 416C440 426.609 435.786 436.783 428.284 444.284C420.783 451.786 410.609 456 400 456ZM400 392C395.253 392 390.613 393.408 386.666 396.045C382.72 398.682 379.643 402.43 377.827 406.816C376.01 411.201 375.535 416.027 376.461 420.682C377.387 425.338 379.673 429.614 383.029 432.971C386.386 436.327 390.662 438.613 395.318 439.539C399.973 440.465 404.799 439.99 409.184 438.173C413.57 436.357 417.318 433.28 419.955 429.334C422.592 425.387 424 420.747 424 416C424 409.635 421.471 403.53 416.971 399.029C412.47 394.529 406.365 392 400 392Z" fill="#FAE7EA"/>
<path d="M112 360C104.089 360 96.3552 357.654 89.7772 353.259C83.1992 348.864 78.0723 342.616 75.0448 335.307C72.0173 327.998 71.2252 319.956 72.7686 312.196C74.312 304.437 78.1217 297.31 83.7158 291.716C89.3099 286.122 96.4372 282.312 104.196 280.769C111.956 279.225 119.998 280.017 127.307 283.045C134.616 286.072 140.864 291.199 145.259 297.777C149.654 304.355 152 312.089 152 320C152 330.609 147.786 340.783 140.284 348.284C132.783 355.786 122.609 360 112 360ZM112 296C107.253 296 102.613 297.408 98.6663 300.045C94.7196 302.682 91.6434 306.43 89.8269 310.816C88.0104 315.201 87.5351 320.027 88.4612 324.682C89.3872 329.338 91.673 333.614 95.0295 336.971C98.3859 340.327 102.662 342.613 107.318 343.539C111.973 344.465 116.799 343.99 121.184 342.173C125.57 340.357 129.318 337.28 131.955 333.334C134.592 329.387 136 324.747 136 320C136 313.635 133.471 307.53 128.971 303.029C124.47 298.529 118.365 296 112 296Z" fill="#FAE7EA"/>
<path d="M112 456C104.089 456 96.3552 453.654 89.7772 449.259C83.1992 444.864 78.0723 438.616 75.0448 431.307C72.0173 423.998 71.2252 415.956 72.7686 408.196C74.312 400.437 78.1217 393.31 83.7158 387.716C89.3099 382.122 96.4372 378.312 104.196 376.769C111.956 375.225 119.998 376.017 127.307 379.045C134.616 382.072 140.864 387.199 145.259 393.777C149.654 400.355 152 408.089 152 416C152 426.609 147.786 436.783 140.284 444.284C132.783 451.786 122.609 456 112 456ZM112 392C107.253 392 102.613 393.408 98.6663 396.045C94.7196 398.682 91.6434 402.43 89.8269 406.816C88.0104 411.201 87.5351 416.027 88.4612 420.682C89.3872 425.338 91.673 429.614 95.0295 432.971C98.3859 436.327 102.662 438.613 107.318 439.539C111.973 440.465 116.799 439.99 121.184 438.173C125.57 436.357 129.318 433.28 131.955 429.334C134.592 425.387 136 420.747 136 416C136 409.635 133.471 403.53 128.971 399.029C124.47 394.529 118.365 392 112 392Z" fill="#FAE7EA"/>
</svg>
