<svg width="512" height="512" viewBox="0 0 512 512" fill="none" xmlns="http://www.w3.org/2000/svg">
<path d="M138.8 275.368C155.484 298.83 178.823 316.746 205.8 326.8H205.864C219.366 331.829 233.549 334.796 247.936 335.6L250.096 335.744C252.056 335.872 254.008 336 256 336C294.177 335.955 330.778 320.77 357.774 293.774C384.77 266.778 399.955 230.177 400 192C400 190.008 399.872 188.056 399.744 186.096L399.6 183.936C398.796 169.549 395.829 155.366 390.8 141.864V141.792C380.743 114.819 362.827 91.4825 339.368 74.7998C319.475 60.5925 296.289 51.6909 272 48.9358C250.514 46.4698 228.748 48.8879 208.328 56.0096C187.907 63.1314 169.358 74.7729 154.066 90.0655C138.773 105.358 127.131 123.907 120.01 144.328C112.888 164.748 110.47 186.514 112.936 208C115.69 232.279 124.586 255.456 138.784 275.344L138.8 275.368ZM245.304 319.368C237.985 318.756 230.732 317.519 223.624 315.672L379.688 159.624C381.535 166.732 382.772 173.985 383.384 181.304L245.304 319.368ZM267.856 319.44L383.456 203.84C380.652 233.552 367.572 261.356 346.471 282.46C325.369 303.564 297.568 316.648 267.856 319.456V319.44ZM373.968 142.72L206.72 309.968C186.783 301.636 169.285 288.383 155.864 271.448L335.448 91.8638C352.383 105.285 365.636 122.783 373.968 142.72ZM252.64 64.0478L128.048 188.64C128.948 155.88 142.363 124.71 165.537 101.537C188.71 78.3633 219.88 64.9478 252.64 64.0478ZM273.992 65.3198C291.031 67.7647 307.399 73.6317 322.112 82.5678L146.568 258.112C137.632 243.399 131.765 227.031 129.32 209.992L273.992 65.3198Z" fill="#FAE7EA"/>
<path d="M464 192C464 189.878 463.157 187.844 461.657 186.343C460.157 184.843 458.122 184 456 184H431.8C429.645 138.826 410.182 96.2145 377.449 65.0063C344.716 33.7981 301.226 16.3882 256 16.3882C210.774 16.3882 167.284 33.7981 134.551 65.0063C101.818 96.2145 82.3554 138.826 80.2 184H56C53.8783 184 51.8434 184.843 50.3431 186.343C48.8429 187.844 48 189.878 48 192C48.0678 242.986 66.836 292.177 100.748 330.25C134.661 368.323 181.361 392.634 232 398.576V440H120C117.878 440 115.843 440.843 114.343 442.343C112.843 443.844 112 445.878 112 448V488C112 490.122 112.843 492.157 114.343 493.657C115.843 495.157 117.878 496 120 496H392C394.122 496 396.157 495.157 397.657 493.657C399.157 492.157 400 490.122 400 488V448C400 445.878 399.157 443.844 397.657 442.343C396.157 440.843 394.122 440 392 440H280V398.576C330.639 392.634 377.339 368.323 411.252 330.25C445.164 292.177 463.932 242.986 464 192ZM256 32.0001C287.645 32.0001 318.579 41.3839 344.891 58.965C371.203 76.546 391.711 101.535 403.821 130.771C415.931 160.007 419.099 192.178 412.926 223.215C406.752 254.251 391.513 282.761 369.137 305.137C346.761 327.514 318.251 342.752 287.214 348.926C256.177 355.099 224.007 351.931 194.771 339.821C165.534 327.711 140.546 307.203 122.965 280.891C105.384 254.579 96 223.645 96 192C96.0487 149.58 112.921 108.912 142.917 78.9168C172.912 48.9215 213.58 32.0488 256 32.0001ZM64.168 200H80.168C82.3234 245.175 101.786 287.786 134.519 318.994C167.252 350.202 210.742 367.612 255.968 367.612C301.194 367.612 344.684 350.202 377.417 318.994C410.15 287.786 429.613 245.175 431.768 200H447.768C445.514 249.353 424.321 295.938 388.599 330.066C352.876 364.194 305.373 383.239 255.968 383.239C206.563 383.239 159.06 364.194 123.337 330.066C87.6146 295.938 66.4224 249.353 64.168 200ZM384 480H128V456H384V480ZM264 400V440H248V400H264Z" fill="#FAE7EA"/>
</svg>
