<svg xmlns="http://www.w3.org/2000/svg" width="600" height="440" viewBox="0 0 600 440"><rect width="100%" height="100%" fill="#DDDDDD"/><path fill="#999999" d="M129.665 215.34h5.93q2.18 0 3.81-.55 1.62-.54 2.7-1.56 1.07-1.02 1.6-2.48.54-1.46.54-3.26 0-1.71-.54-3.1-.53-1.38-1.59-2.36-1.06-.97-2.68-1.48-1.63-.52-3.84-.52h-5.93v15.31Zm-7.93-21.45h13.86q4.28 0 7.41 1.01 3.12 1 5.16 2.8 2.03 1.8 3.02 4.31.99 2.5.99 5.48 0 3.1-1.03 5.68-1.03 2.58-3.1 4.44-2.06 1.86-5.18 2.89-3.11 1.03-7.27 1.03h-5.93v15.02h-7.93v-42.66Zm41.8 14.22.44 3.42q1.42-2.71 3.36-4.26 1.95-1.55 4.61-1.55 2.09 0 3.36.92l-.47 5.45q-.15.54-.43.76-.28.22-.75.22-.45 0-1.32-.15-.87-.15-1.69-.15-1.21 0-2.16.36-.94.35-1.69 1.01-.75.67-1.33 1.61-.57.95-1.08 2.16v18.64h-7.28v-30.27h4.27q1.13 0 1.57.4.44.4.59 1.43Zm28.97-2.3q3.36 0 6.12 1.09 2.76 1.09 4.72 3.1t3.02 4.9q1.06 2.89 1.06 6.46 0 3.6-1.06 6.49t-3.02 4.92q-1.96 2.04-4.72 3.13-2.76 1.09-6.12 1.09-3.4 0-6.17-1.09t-4.73-3.13q-1.96-2.03-3.04-4.92t-1.08-6.49q0-3.57 1.08-6.46t3.04-4.9q1.96-2.01 4.73-3.1 2.77-1.09 6.17-1.09Zm0 25.58q3.77 0 5.59-2.54 1.81-2.54 1.81-7.43 0-4.9-1.81-7.47-1.82-2.56-5.59-2.56-3.84 0-5.68 2.58-1.85 2.58-1.85 7.45 0 4.86 1.85 7.42 1.84 2.55 5.68 2.55Zm20.74-25.11h7.31v31.3q0 1.98-.51 3.72-.52 1.74-1.66 3.05-1.13 1.32-2.98 2.07-1.84.75-4.49.75-1.04 0-1.92-.13-.89-.14-1.83-.43l.26-3.92q.09-.59.48-.76.38-.16 1.47-.16 1.09 0 1.85-.22.75-.22 1.19-.71.44-.48.63-1.28.2-.8.2-1.98v-31.3Zm8.31-8.82q0 .95-.38 1.77-.38.83-1.02 1.45-.63.62-1.5.99-.87.36-1.84.36-.95 0-1.77-.36-.83-.37-1.45-.99t-.99-1.45q-.37-.82-.37-1.77 0-.97.37-1.83.37-.85.99-1.47t1.45-.99q.82-.37 1.77-.37.97 0 1.84.37.87.37 1.5.99.64.62 1.02 1.47.38.86.38 1.83Zm12.19 20.48h13.75q0-1.42-.4-2.67-.4-1.26-1.2-2.2-.79-.95-2.02-1.49-1.22-.55-2.85-.55-3.15 0-4.97 1.8-1.81 1.8-2.31 5.11Zm18.58 4.39h-18.73q.18 2.33.83 4.03.65 1.69 1.71 2.8 1.06 1.11 2.52 1.65 1.46.55 3.23.55t3.05-.42q1.29-.41 2.25-.91.95-.5 1.68-.91.72-.42 1.4-.42.91 0 1.36.68l2.09 2.66q-1.21 1.41-2.71 2.37-1.51.96-3.15 1.54-1.63.57-3.33.81-1.7.23-3.29.23-3.16 0-5.87-1.04-2.71-1.05-4.72-3.1t-3.16-5.08q-1.15-3.02-1.15-7 0-3.1 1.01-5.83 1-2.73 2.87-4.75 1.88-2.02 4.58-3.2 2.69-1.18 6.09-1.18 2.86 0 5.28.92 2.42.91 4.16 2.67 1.74 1.75 2.73 4.3.98 2.55.98 5.83 0 1.65-.35 2.23-.35.57-1.36.57Zm30.77-12.3-1.92 2.65q-.32.42-.63.65-.31.24-.9.24-.56 0-1.09-.34t-1.27-.77q-.74-.42-1.75-.76-1.02-.34-2.53-.34-1.91 0-3.36.69t-2.4 1.99q-.96 1.3-1.44 3.14-.47 1.85-.47 4.18 0 2.42.52 4.3.52 1.89 1.49 3.18.97 1.28 2.36 1.94 1.39.67 3.13.67t2.81-.43q1.08-.43 1.82-.95.73-.51 1.28-.94.55-.43 1.22-.43.89 0 1.33.68l2.1 2.66q-1.21 1.41-2.63 2.37-1.41.96-2.93 1.54-1.52.57-3.13.81-1.61.23-3.2.23-2.8 0-5.28-1.04-2.48-1.05-4.34-3.06-1.86-2-2.93-4.91-1.08-2.91-1.08-6.62 0-3.34.96-6.18.96-2.85 2.82-4.93 1.85-2.08 4.6-3.26 2.74-1.18 6.31-1.18 3.39 0 5.94 1.09 2.56 1.09 4.59 3.13Zm14.93 26.99q-3.95 0-6.06-2.23-2.11-2.22-2.11-6.15v-16.9h-3.1q-.59 0-1-.38-.42-.39-.42-1.15v-2.89l4.87-.8 1.54-8.26q.14-.59.56-.92.41-.32 1.06-.32h3.77v9.53h8.09v5.19h-8.09v16.4q0 1.42.7 2.21.69.8 1.9.8.68 0 1.14-.16.45-.16.79-.34.34-.18.61-.34.26-.16.53-.16.32 0 .53.16.21.16.44.49l2.18 3.54q-1.59 1.32-3.65 2-2.07.68-4.28.68Zm35.31-43.13v42.66h-7.96v-42.66h7.96Zm15.66 42.66h-7.28v-30.27h4.45q1.42 0 1.86 1.33l.47 2.24q.8-.88 1.67-1.62.87-.74 1.86-1.27.99-.53 2.12-.84 1.14-.31 2.5-.31 2.86 0 4.7 1.55 1.84 1.55 2.76 4.11.71-1.5 1.77-2.58 1.06-1.07 2.33-1.75 1.27-.68 2.7-1 1.43-.33 2.87-.33 2.51 0 4.46.77 1.95.76 3.27 2.24 1.33 1.47 2.02 3.6.7 2.12.7 4.87v19.26h-7.29v-19.26q0-2.89-1.27-4.35-1.27-1.47-3.71-1.47-1.13 0-2.08.39-.96.38-1.69 1.1-.72.73-1.13 1.82-.41 1.09-.41 2.51v19.26h-7.32v-19.26q0-3.04-1.22-4.43-1.23-1.39-3.59-1.39-1.59 0-2.96.79-1.38.78-2.56 2.14v22.15Zm58.12-7.82v-5.1q-3.16.15-5.31.54-2.15.4-3.45 1.02-1.3.62-1.86 1.45-.56.82-.56 1.8 0 1.91 1.14 2.74 1.13.83 2.96.83 2.24 0 3.88-.81 1.64-.82 3.2-2.47Zm-15.4-15.9-1.3-2.33q5.22-4.78 12.57-4.78 2.65 0 4.75.87 2.09.87 3.54 2.42 1.44 1.55 2.2 3.7.75 2.16.75 4.72v19.12h-3.3q-1.04 0-1.6-.31t-.88-1.25l-.65-2.19q-1.15 1.04-2.24 1.82-1.1.78-2.28 1.31-1.18.53-2.52.81t-2.96.28q-1.92 0-3.54-.51-1.62-.52-2.8-1.55-1.18-1.04-1.83-2.57-.65-1.53-.65-3.57 0-1.15.38-2.29.38-1.13 1.25-2.16.87-1.04 2.26-1.95 1.39-.92 3.41-1.59 2.02-.68 4.7-1.11 2.69-.43 6.14-.52v-1.77q0-3.03-1.3-4.49-1.3-1.47-3.74-1.47-1.77 0-2.94.42-1.17.41-2.05.93-.89.51-1.61.93-.72.41-1.61.41-.76 0-1.29-.4t-.86-.93Zm40.42 7.85q1.35 0 2.36-.37 1-.37 1.66-1.02.67-.65 1.01-1.56.33-.92.33-2.01 0-2.24-1.34-3.55-1.34-1.31-4.02-1.31-2.69 0-4.03 1.31-1.34 1.31-1.34 3.55 0 1.06.34 1.98.34.91 1 1.58.66.66 1.68 1.03t2.35.37Zm8.23 17.23q0-.89-.53-1.45-.54-.56-1.45-.87-.91-.31-2.14-.46-1.22-.14-2.59-.22-1.38-.07-2.84-.13t-2.84-.24q-1.21.68-1.97 1.6-.75.91-.75 2.12 0 .8.4 1.49t1.27 1.2q.87.5 2.26.78 1.38.28 3.39.28 2.03 0 3.51-.31 1.47-.31 2.43-.86.96-.54 1.4-1.3.45-.75.45-1.63Zm-1.45-30.59h8.7v2.71q0 1.3-1.56 1.59l-2.71.5q.62 1.57.62 3.43 0 2.24-.9 4.05-.9 1.82-2.5 3.08-1.59 1.27-3.76 1.97-2.17.69-4.67.69-.89 0-1.72-.09-.82-.09-1.62-.23-1.41.85-1.41 1.91 0 .92.84 1.35.84.42 2.22.6 1.39.18 3.16.22 1.77.05 3.63.19 1.86.15 3.63.52 1.77.37 3.15 1.16 1.39.8 2.23 2.17.84 1.37.84 3.53 0 2-.99 3.89-.98 1.89-2.86 3.37-1.87 1.47-4.6 2.37-2.73.9-6.21.9-3.42 0-5.96-.66-2.54-.67-4.22-1.77-1.68-1.11-2.5-2.56-.83-1.44-.83-3 0-2.13 1.28-3.56 1.29-1.43 3.53-2.29-1.21-.62-1.92-1.65-.71-1.03-.71-2.71 0-.68.25-1.4.25-.73.74-1.43.49-.71 1.23-1.35.73-.63 1.74-1.13-2.31-1.24-3.62-3.31-1.31-2.06-1.31-4.83 0-2.25.9-4.06.9-1.81 2.51-3.1 1.6-1.28 3.8-1.96 2.2-.68 4.8-.68 1.94 0 3.65.4t3.13 1.17Zm19.06 10.62h13.74q0-1.42-.39-2.67-.4-1.26-1.2-2.2-.79-.95-2.02-1.49-1.22-.55-2.85-.55-3.15 0-4.97 1.8-1.81 1.8-2.31 5.11Zm18.58 4.39h-18.73q.18 2.33.83 4.03.65 1.69 1.71 2.8 1.06 1.11 2.52 1.65 1.46.55 3.23.55t3.05-.42q1.29-.41 2.25-.91.95-.5 1.68-.91.72-.42 1.4-.42.91 0 1.35.68l2.1 2.66q-1.21 1.41-2.71 2.37-1.51.96-3.15 1.54-1.63.57-3.33.81-1.7.23-3.29.23-3.16 0-5.87-1.04-2.71-1.05-4.72-3.1t-3.16-5.08q-1.15-3.02-1.15-7 0-3.1 1.01-5.83 1-2.73 2.87-4.75 1.88-2.02 4.58-3.2 2.69-1.18 6.09-1.18 2.86 0 5.28.92 2.42.91 4.16 2.67 1.74 1.75 2.73 4.3.98 2.55.98 5.83 0 1.65-.35 2.23-.35.57-1.36.57Z"/></svg>